<?xml version="1.0" standalone="no"?>
<!DOCTYPE svg PUBLIC "-//W3C//DTD SVG 20010904//EN"
 "http://www.w3.org/TR/2001/REC-SVG-20010904/DTD/svg10.dtd">
<svg version="1.0" xmlns="http://www.w3.org/2000/svg"
 width="1024.000000pt" height="1024.000000pt" viewBox="0 0 1024.000000 1024.000000"
 preserveAspectRatio="xMidYMid meet">
<metadata>
Created by potrace 1.14, written by Peter Selinger 2001-2017
</metadata>
<g transform="translate(0.000000,1024.000000) scale(0.100000,-0.100000)"
fill="#000000" stroke="none">
<path d="M6227 8983 c-7 -12 -78 -347 -166 -783 -92 -455 -110 -542 -115 -548
-2 -2 -120 2 -262 7 -143 6 -497 20 -789 31 -291 11 -569 22 -617 26 l-88 6
-115 110 c-336 321 -512 644 -550 1006 -10 91 -15 90 -235 -38 -217 -126 -625
-348 -905 -492 -287 -148 -376 -201 -432 -259 -42 -45 -82 -134 -95 -214 -6
-36 -14 -65 -18 -65 -3 0 -19 14 -35 30 -32 34 -65 40 -65 12 0 -40 114 -206
244 -357 48 -55 155 -181 239 -280 274 -325 467 -520 729 -739 l98 -81 -5
-110 c-7 -140 -21 -547 -35 -970 l-11 -330 -56 -50 c-86 -79 -294 -226 -429
-305 -267 -156 -524 -248 -748 -267 l-74 -6 -35 39 c-90 99 -350 209 -450 190
-108 -20 -116 -142 -13 -205 20 -13 36 -24 36 -26 0 -2 -24 -8 -52 -15 -121
-25 -181 -95 -157 -183 28 -104 150 -153 282 -113 l47 14 0 -27 c0 -46 31 -65
95 -58 104 11 243 111 260 188 4 16 10 29 13 29 4 0 48 5 97 11 357 43 736
210 1083 477 46 35 85 62 87 60 1 -2 -4 -165 -11 -363 -18 -483 -19 -615 -6
-647 l11 -26 -93 -4 c-92 -3 -94 -4 -232 -71 -285 -140 -781 -409 -1334 -724
-446 -254 -480 -275 -532 -322 -61 -54 -65 -86 -28 -258 17 -81 39 -165 49
-187 39 -88 94 -131 207 -160 74 -19 758 -132 1834 -302 261 -41 680 -108 930
-149 250 -41 669 -108 930 -150 466 -74 707 -112 1125 -180 116 -19 242 -37
280 -40 88 -8 184 7 249 39 28 14 141 101 252 193 111 92 310 258 444 368 291
240 717 595 1007 838 258 216 253 210 264 406 7 137 2 172 -24 188 -12 7 -13
35 -8 165 3 86 8 158 11 160 3 2 50 37 105 78 143 106 349 275 382 314 20 23
43 37 77 45 71 18 119 45 174 100 58 58 89 118 105 201 13 67 24 80 422 514
105 114 194 219 199 234 5 15 16 45 25 67 43 106 -12 222 -133 276 -58 25
-109 21 -172 -16 -33 -19 -508 -505 -751 -767 l-61 -67 -6 33 c-9 46 -144 316
-202 401 -25 39 -61 86 -80 107 -58 65 -56 -22 -19 793 8 187 20 480 25 650 6
171 15 409 20 530 5 121 10 274 10 340 0 151 -15 185 -101 228 -53 27 -66 28
-254 37 -108 5 -199 11 -202 13 -2 3 12 69 32 148 42 169 180 709 236 926 48
187 48 191 7 197 -18 3 -289 23 -603 46 -313 23 -714 52 -890 66 -338 25 -421
29 -428 17z m275 -58 c103 -8 404 -30 670 -50 266 -19 573 -41 683 -50 110 -8
215 -15 233 -15 24 0 32 -4 32 -18 0 -10 -40 -173 -89 -363 -50 -189 -118
-456 -152 -594 -34 -137 -63 -251 -64 -253 -2 -3 -955 34 -1495 58 -118 5
-238 10 -266 10 l-51 0 113 558 c121 599 142 700 149 720 5 15 9 15 237 -3z
m-3023 -160 c1 -16 13 -75 26 -129 71 -278 229 -534 495 -801 61 -61 110 -113
110 -115 0 -5 -53 -3 -455 16 -147 6 -157 8 -128 20 22 10 31 19 27 29 -9 21
-33 18 -79 -10 -25 -15 -55 -25 -79 -25 -140 0 -227 -44 -281 -140 -30 -53
-35 -57 -173 -129 -78 -41 -137 -78 -131 -81 6 -5 2 -9 -10 -13 -12 -3 -19 -1
-15 4 3 5 -2 6 -10 3 -9 -3 -13 -11 -9 -17 3 -5 1 -7 -5 -3 -14 9 -83 -25 -75
-37 3 -6 1 -7 -5 -3 -13 8 -81 -35 -82 -51 0 -7 6 -13 13 -13 23 0 217 99 217
110 0 6 5 8 10 5 6 -4 25 3 44 14 18 12 66 37 105 57 39 19 73 39 76 45 4 5
11 7 16 3 14 -8 1 -144 -15 -158 -6 -6 -75 -43 -152 -81 -83 -42 -139 -76
-136 -83 2 -7 11 -12 19 -12 13 0 13 2 2 17 -12 15 -12 16 5 10 12 -5 24 -1
36 13 15 17 25 20 53 15 39 -8 58 8 30 24 -24 14 -7 14 18 0 16 -8 31 -4 74
19 30 16 57 27 60 24 3 -3 5 -33 5 -67 0 -47 -5 -67 -19 -84 -11 -12 -22 -21
-26 -20 -10 3 -75 -35 -75 -44 0 -4 -4 -6 -9 -2 -11 6 -81 -33 -81 -46 0 -5 7
-12 15 -15 15 -6 38 4 138 60 l48 26 -7 -292 c-4 -161 -10 -314 -13 -340 l-6
-47 -120 106 c-249 219 -406 379 -628 642 -72 84 -173 201 -224 260 -89 100
-177 211 -218 274 -13 20 -14 26 -3 22 29 -11 47 19 62 108 18 106 55 171 130
226 68 49 102 68 371 206 229 117 454 239 845 458 224 125 216 124 219 42z
m626 -1094 c160 -6 421 -16 580 -21 359 -12 683 -24 1345 -50 283 -11 648 -24
810 -30 162 -6 405 -15 540 -20 135 -5 367 -15 515 -20 149 -6 281 -13 293
-16 27 -6 72 -47 72 -66 0 -8 -5 -6 -11 5 -6 9 -14 15 -20 12 -5 -3 -17 -1
-26 5 -15 9 -14 10 7 5 19 -4 21 -3 10 4 -21 13 -390 25 -370 11 8 -5 29 -10
45 -11 30 -2 30 -2 -5 -9 l-35 -7 33 -2 c17 0 32 -5 32 -11 0 -5 8 -10 18 -10
16 -1 16 -1 0 -14 -10 -7 -18 -25 -18 -40 0 -21 -5 -26 -25 -26 -17 0 -23 -4
-19 -15 4 -8 10 -12 15 -9 5 3 6 -2 3 -11 -4 -8 -17 -18 -30 -21 -30 -8 -31
-24 -1 -25 21 -2 21 -2 -3 -7 -20 -5 -17 -7 20 -13 l45 -6 -55 -2 c-40 -1 -51
-4 -40 -11 11 -7 6 -10 -20 -10 -61 0 -1165 46 -1895 80 -236 11 -545 24 -685
30 -484 20 -736 30 -1060 45 -179 8 -421 18 -538 21 l-212 7 -25 -23 c-45 -42
-42 -11 -70 -835 -24 -690 -34 -969 -50 -1315 -8 -179 -19 -455 -25 -615 -5
-159 -15 -403 -21 -541 -10 -228 -10 -255 6 -287 18 -39 52 -52 165 -62 139
-12 276 -27 290 -32 8 -2 42 -6 75 -8 97 -5 206 -15 264 -26 30 -5 70 -9 88
-9 20 0 32 -4 28 -10 -3 -6 -1 -10 4 -10 6 0 11 5 11 11 0 7 11 8 33 3 17 -4
55 -6 82 -6 38 1 45 -1 30 -8 -14 -6 1 -8 45 -5 46 3 56 2 35 -4 -16 -5 -55
-10 -85 -11 -44 -2 -50 -4 -30 -10 17 -5 19 -8 8 -9 -20 -1 -25 -21 -6 -21 7
0 1 -12 -13 -26 -24 -24 -29 -25 -70 -15 l-44 11 50 -5 c34 -2 44 -1 30 5 -11
5 -42 9 -70 9 -50 1 -102 20 -60 22 11 0 14 3 7 6 -6 2 -10 9 -6 14 3 5 -7 9
-23 8 -24 0 -25 -1 -8 -9 18 -7 17 -8 -10 -14 -16 -4 -49 -11 -72 -17 -23 -5
-56 -6 -75 -2 -32 7 -32 7 -8 14 23 7 23 7 -7 8 -32 1 -51 15 -34 25 5 4 11 1
13 -5 4 -12 147 -18 155 -6 2 4 -4 7 -14 8 -16 0 -17 1 -1 7 10 4 -23 7 -73 7
-50 -1 -93 3 -95 7 -7 12 -34 10 -34 -2 0 -5 9 -10 19 -10 14 0 18 -5 14 -20
-3 -11 -9 -20 -14 -20 -5 0 -6 8 -2 18 3 9 3 14 -2 10 -4 -4 -16 2 -26 13 -16
19 -37 11 -25 -10 9 -14 -14 -19 -69 -15 -44 3 -46 2 -15 -5 55 -13 7 -12
-145 4 -487 50 -492 51 -522 108 -14 28 -15 70 -4 427 6 217 13 447 16 510 23
530 66 1703 90 2425 9 252 20 476 25 497 11 41 50 92 84 110 47 26 154 26 871
-1z m4002 -197 c-3 -3 -12 -4 -19 -1 -8 3 -5 6 6 6 11 1 17 -2 13 -5z m85 -26
c-9 -9 -15 -9 -24 0 -9 9 -7 12 12 12 19 0 21 -3 12 -12z m-5332 -32 c0 -2 -7
-7 -16 -10 -8 -3 -12 -2 -9 4 6 10 25 14 25 6z m1190 -71 c179 -8 381 -17 450
-20 69 -3 271 -12 450 -20 179 -8 440 -19 580 -25 140 -6 356 -15 480 -20 682
-30 1389 -60 1640 -70 333 -13 346 -14 361 -42 11 -20 4 -280 -21 -818 -19
-390 -66 -1636 -100 -2615 -6 -165 -13 -311 -16 -324 -10 -45 -29 -54 -97 -47
-34 4 -129 13 -212 21 -165 15 -848 84 -1155 115 -474 49 -598 62 -975 100
-220 22 -647 65 -950 95 -302 31 -685 69 -850 85 -165 17 -308 30 -317 30 -10
0 -25 11 -33 24 -14 21 -14 74 5 567 24 653 38 994 45 1109 3 47 12 285 20
530 29 878 46 1285 55 1308 6 12 19 26 29 30 25 9 206 5 611 -13z m-1083 -81
c-3 -3 -12 -4 -19 -1 -8 3 -5 6 6 6 11 1 17 -2 13 -5z m-50 -30 c-3 -3 -12 -4
-19 -1 -8 3 -5 6 6 6 11 1 17 -2 13 -5z m5340 -26 c-3 -8 -6 -5 -6 6 -1 11 2
17 5 13 3 -3 4 -12 1 -19z m-5212 -108 c-3 -5 -13 -6 -21 -3 -12 4 -13 8 -3
14 15 9 32 2 24 -11z m5212 -2 c-3 -8 -6 -5 -6 6 -1 11 2 17 5 13 3 -3 4 -12
1 -19z m1416 -1857 c72 -44 108 -133 77 -190 -12 -24 -12 -24 -185 132 l-60
54 30 17 c37 20 92 15 138 -13z m-238 -113 c-21 -24 -122 -131 -224 -238 -103
-107 -212 -222 -242 -256 -29 -33 -71 -72 -92 -85 -40 -25 -86 -91 -88 -125 0
-11 -3 -14 -6 -6 -3 9 -13 5 -35 -13 -28 -24 -58 -33 -58 -18 0 7 32 41 380
403 129 135 269 280 309 323 48 50 78 74 84 68 7 -7 -3 -25 -28 -53z m-1012
-505 c45 -88 87 -200 87 -228 0 -8 -11 -22 -24 -30 -37 -25 -52 -69 -39 -119
11 -40 11 -41 -31 -86 -24 -25 -56 -65 -71 -88 -15 -23 -30 -41 -32 -39 -2 2
1 132 7 288 5 156 10 324 10 374 l0 90 25 -37 c13 -20 44 -76 68 -125z m112
-423 c3 -5 1 -10 -4 -10 -6 0 -11 5 -11 10 0 6 2 10 4 10 3 0 8 -4 11 -10z
m19 -89 c67 -54 139 -128 175 -180 17 -25 21 -39 14 -50 -5 -9 -72 -66 -148
-127 l-139 -112 -52 47 c-29 27 -81 63 -117 82 l-65 33 23 46 c38 76 217 310
237 310 5 0 38 -22 72 -49z m-291 -391 c50 -31 137 -108 137 -120 0 -4 -32
-29 -72 -55 -68 -45 -74 -47 -103 -35 -16 7 -46 17 -66 23 l-36 10 36 104 c20
56 41 103 47 103 5 0 31 -13 57 -30z m-3780 -97 c-7 -2 -19 -2 -25 0 -7 3 -2
5 12 5 14 0 19 -2 13 -5z m-1419 -18 c77 -15 308 -42 906 -105 162 -17 439
-46 615 -65 176 -19 428 -46 560 -60 132 -14 321 -34 420 -45 99 -11 333 -36
520 -55 187 -20 484 -52 660 -70 523 -57 1081 -114 1215 -126 69 -6 156 -14
195 -17 l70 -7 -134 -105 c-74 -58 -235 -186 -358 -285 -124 -99 -275 -220
-336 -269 -62 -48 -148 -118 -192 -155 -44 -37 -152 -125 -240 -196 -255 -206
-432 -350 -544 -442 -162 -134 -172 -138 -321 -137 -121 1 -159 6 -670 88 -52
9 -153 24 -225 35 -71 11 -260 40 -420 66 -330 52 -630 100 -725 115 -36 5
-148 23 -250 40 -102 16 -331 52 -510 80 -179 28 -489 78 -690 110 -201 33
-462 76 -580 95 -708 115 -961 157 -1017 170 -70 16 -169 63 -195 91 -47 53
-40 115 20 166 34 28 778 455 1120 642 229 125 550 295 712 376 161 81 240 94
394 65z m1363 9 c-3 -3 -12 -4 -19 -1 -8 3 -5 6 6 6 11 1 17 -2 13 -5z m123
-10 c0 -2 -9 -4 -21 -4 -11 0 -18 4 -14 10 5 8 35 3 35 -6z m-203 0 c-3 -3
-12 -4 -19 -1 -8 3 -5 6 6 6 11 1 17 -2 13 -5z m480 -20 c-3 -3 -12 -4 -19 -1
-8 3 -5 6 6 6 11 1 17 -2 13 -5z m-1044 -11 c-7 -2 -19 -2 -25 0 -7 3 -2 5 12
5 14 0 19 -2 13 -5z m80 -10 c-7 -2 -19 -2 -25 0 -7 3 -2 5 12 5 14 0 19 -2
13 -5z m165 -10 c-10 -2 -28 -2 -40 0 -13 2 -5 4 17 4 22 1 32 -1 23 -4z m52
-3 c0 -5 -4 -10 -9 -10 -6 0 -13 5 -16 10 -3 6 1 10 9 10 9 0 16 -4 16 -10z
m4040 -72 c0 -7 -7 -22 -15 -32 -16 -21 -18 -15 -9 22 7 23 24 31 24 10z m-29
-331 c-10 -9 -11 -8 -5 6 3 10 9 15 12 12 3 -3 0 -11 -7 -18z"/>
<path d="M6401 8766 c-8 -10 -10 -20 -5 -25 5 -5 79 -14 164 -20 166 -12 423
-33 715 -56 99 -8 210 -15 248 -14 58 1 67 4 67 19 0 23 -7 24 -360 50 -306
23 -638 48 -745 57 -58 5 -73 3 -84 -11z"/>
<path d="M6384 8575 c-13 -10 -16 -17 -9 -24 6 -6 215 -28 475 -51 605 -52
685 -56 695 -41 13 23 -9 29 -130 40 -237 21 -703 61 -830 71 -71 6 -142 13
-156 15 -15 2 -35 -2 -45 -10z"/>
<path d="M6314 8275 c-10 -26 5 -33 108 -45 122 -14 607 -74 763 -95 190 -24
252 -28 260 -15 18 29 11 30 -460 90 -309 40 -642 80 -658 80 -4 0 -10 -7 -13
-15z"/>
<path d="M6253 8074 c-12 -33 -31 -29 577 -98 489 -56 531 -59 543 -47 29 29
-19 39 -352 76 -183 20 -422 47 -530 61 -232 28 -230 28 -238 8z"/>
<path d="M6219 7894 c-10 -13 -10 -17 2 -25 8 -5 16 -9 19 -9 3 0 100 -11 215
-25 508 -61 854 -97 865 -90 21 13 9 34 -22 40 -35 6 -527 64 -763 89 -77 9
-174 20 -215 26 -41 5 -78 10 -81 10 -4 0 -12 -7 -20 -16z"/>
<path d="M3200 8029 c-30 -17 -104 -57 -165 -88 -60 -32 -168 -90 -240 -128
-71 -38 -172 -91 -222 -117 -55 -28 -90 -52 -86 -59 3 -5 1 -7 -5 -4 -15 10
-43 -3 -35 -16 3 -6 1 -7 -5 -3 -13 8 -102 -40 -102 -54 0 -17 22 -22 50 -10
17 7 27 16 24 21 -3 5 3 6 12 2 13 -5 15 -3 9 7 -5 8 -4 11 2 7 14 -9 86 27
76 38 -4 4 -2 5 4 1 7 -4 34 6 60 21 56 33 88 50 220 119 165 86 426 225 461
246 35 21 43 48 15 48 -10 0 -43 -14 -73 -31z"/>
<path d="M3350 7908 c-30 -17 -58 -36 -61 -41 -3 -5 -9 -8 -13 -7 -12 4 -66
-22 -66 -31 0 -5 -3 -8 -7 -7 -16 3 -43 -15 -36 -25 3 -5 1 -7 -4 -4 -6 4 -80
-30 -164 -74 -85 -45 -175 -92 -201 -106 -27 -14 -45 -30 -41 -36 3 -5 1 -7
-5 -3 -14 9 -63 -14 -55 -27 3 -6 1 -7 -5 -3 -6 3 -46 -13 -88 -36 -66 -37
-73 -43 -50 -46 14 -2 24 -8 20 -13 -3 -5 11 -2 30 8 20 9 36 20 36 25 0 4 7
8 15 8 8 0 15 5 15 10 0 6 3 9 8 8 4 -1 18 4 31 11 19 11 21 15 10 23 -10 7
-8 7 9 3 13 -4 22 -2 22 4 0 6 5 11 11 11 5 0 7 -6 3 -12 -5 -10 -3 -10 7 0 8
7 14 18 14 24 0 6 7 13 15 15 13 4 13 3 0 -6 -9 -6 -10 -11 -3 -11 21 0 43 12
37 21 -3 5 2 6 10 3 9 -3 16 -1 16 5 0 6 3 10 8 9 11 -3 238 116 257 135 7 7
5 7 -4 2 -10 -5 -12 -4 -7 4 4 6 11 9 16 6 5 -3 55 18 110 47 91 46 100 53 84
65 -10 7 -13 13 -8 13 6 0 15 -5 21 -11 14 -14 116 36 110 54 -7 22 -42 17
-97 -15z m-760 -438 c8 -5 11 -10 5 -10 -5 0 -17 5 -25 10 -8 5 -10 10 -5 10
6 0 17 -5 25 -10z"/>
<path d="M2500 7440 c0 -5 -7 -10 -15 -10 -8 0 -15 -4 -15 -9 0 -15 21 -25 29
-14 3 6 19 13 34 17 15 4 25 11 22 16 -9 15 -27 12 -19 -2 6 -10 4 -10 -7 0
-16 15 -29 16 -29 2z"/>
<path d="M2845 7190 c-3 -6 1 -7 9 -4 18 7 21 14 7 14 -6 0 -13 -4 -16 -10z"/>
<path d="M2742 7178 c-16 -16 -15 -28 2 -28 19 0 27 13 17 28 -5 9 -10 9 -19
0z"/>
<path d="M4168 3623 c7 -3 16 -2 19 1 4 3 -2 6 -13 5 -11 0 -14 -3 -6 -6z"/>
<path d="M4218 3613 c7 -3 16 -2 19 1 4 3 -2 6 -13 5 -11 0 -14 -3 -6 -6z"/>
<path d="M4160 3600 c8 -5 26 -9 40 -9 23 0 23 1 5 9 -11 5 -29 9 -40 9 -17 1
-17 -1 -5 -9z"/>
<path d="M3978 3583 c7 -3 16 -2 19 1 4 3 -2 6 -13 5 -11 0 -14 -3 -6 -6z"/>
<path d="M3928 3573 c6 -2 18 -2 25 0 6 3 1 5 -13 5 -14 0 -19 -2 -12 -5z"/>
<path d="M4128 3573 c6 -2 18 -2 25 0 6 3 1 5 -13 5 -14 0 -19 -2 -12 -5z"/>
<path d="M4203 3573 c9 -2 23 -2 30 0 6 3 -1 5 -18 5 -16 0 -22 -2 -12 -5z"/>
<path d="M4466 6993 c-151 -39 -286 -164 -286 -262 0 -45 23 -94 53 -114 42
-27 90 -21 176 23 43 22 104 45 135 50 31 6 82 15 113 20 68 12 108 46 124
103 13 49 4 89 -29 129 -55 66 -159 84 -286 51z"/>
<path d="M6202 6949 c-61 -31 -87 -71 -87 -139 0 -45 5 -62 25 -87 33 -41 57
-51 146 -64 97 -13 135 -27 213 -78 35 -22 76 -41 90 -41 62 0 131 74 131 140
0 80 -84 191 -180 240 -105 53 -261 67 -338 29z"/>
<path d="M4395 6047 c-72 -24 -120 -54 -168 -106 -55 -59 -80 -109 -98 -198
-34 -165 58 -340 219 -416 61 -29 76 -32 162 -32 83 0 103 4 153 27 32 15 76
41 97 58 123 97 167 309 95 456 -37 76 -119 158 -191 191 -69 31 -204 41 -269
20z m55 -106 c65 -45 74 -134 21 -193 -24 -27 -36 -32 -87 -36 -54 -4 -63 -1
-92 23 -126 106 22 300 158 206z m268 -361 c24 -22 30 -77 12 -110 -9 -17 -58
-40 -86 -40 -7 0 -26 12 -43 26 -25 21 -31 33 -31 65 0 53 27 79 83 79 30 0
50 -6 65 -20z"/>
<path d="M6282 6014 c-69 -18 -98 -34 -153 -82 -56 -50 -103 -136 -119 -219
-25 -126 25 -270 127 -363 72 -66 144 -93 248 -93 233 1 397 177 383 412 -14
244 -246 410 -486 345z m38 -97 c35 -18 70 -74 70 -114 0 -81 -55 -136 -137
-136 -103 0 -166 112 -112 199 11 19 33 41 47 49 33 18 99 19 132 2z m288
-369 c31 -34 35 -68 13 -105 -54 -87 -183 -25 -151 72 18 55 98 74 138 33z"/>
<path d="M5780 5243 c-8 -2 -28 -27 -45 -56 -25 -43 -41 -57 -95 -84 -83 -42
-183 -57 -280 -43 -119 17 -180 54 -221 132 -21 41 -55 56 -87 39 -49 -26 -30
-95 45 -160 182 -161 534 -144 701 33 43 45 52 61 52 91 0 29 -5 37 -26 45
-14 6 -26 9 -27 9 -1 -1 -9 -3 -17 -6z"/>
<path d="M2725 3391 c-273 -141 -521 -277 -583 -320 -15 -10 -73 -47 -130 -81
-93 -56 -103 -65 -100 -89 2 -21 11 -29 43 -38 36 -12 295 -54 630 -104 72
-10 231 -35 355 -54 124 -19 329 -51 455 -70 127 -19 446 -68 710 -109 264
-41 557 -86 650 -101 94 -14 211 -32 260 -40 50 -8 182 -28 295 -44 113 -17
277 -41 365 -55 612 -95 1005 -148 1040 -141 18 3 65 37 122 88 50 45 120 102
155 127 82 58 148 119 148 136 0 8 9 14 19 14 25 0 133 80 192 142 26 26 52
48 60 48 17 0 187 129 194 148 15 39 -15 46 -410 92 -44 5 -206 25 -360 45
-385 49 -799 101 -990 125 -239 29 -1647 206 -1825 230 -85 11 -252 34 -370
50 -495 67 -679 90 -716 89 -29 0 -84 -23 -209 -88z"/>
<path d="M2900 2414 c-302 -191 -295 -185 -298 -217 -3 -22 2 -29 23 -37 24
-9 417 -76 1110 -189 138 -23 264 -41 281 -41 24 0 91 39 280 166 137 92 252
172 256 178 13 19 9 35 -12 46 -23 12 -152 35 -510 90 -146 22 -303 47 -350
55 -189 33 -522 85 -543 85 -12 -1 -119 -62 -237 -136z"/>
<path d="M2135 6542 c-118 -63 -192 -114 -350 -240 -71 -58 -135 -109 -142
-114 -18 -14 -85 52 -111 109 -12 26 -28 65 -36 86 -12 28 -21 37 -39 37 -19
0 -40 -22 -101 -104 -42 -58 -110 -141 -151 -184 -41 -44 -75 -85 -75 -92 0
-7 28 -46 63 -89 130 -157 242 -336 353 -566 112 -232 174 -427 207 -655 12
-82 13 -85 40 -88 34 -4 101 36 284 170 186 137 336 235 463 302 128 67 177
85 255 94 60 7 60 7 63 42 4 46 -47 243 -94 361 -54 137 -148 332 -249 514
-108 194 -184 342 -213 413 -18 45 -24 52 -49 52 -15 0 -69 -22 -118 -48z
m126 -42 c15 -41 91 -188 204 -391 116 -208 199 -380 250 -515 39 -102 96
-313 88 -326 -2 -5 -13 -8 -24 -8 -36 0 -171 -51 -254 -95 -165 -88 -273 -160
-595 -395 -52 -38 -100 -70 -106 -70 -7 0 -17 34 -23 81 -48 328 -227 729
-494 1110 l-74 107 66 6 c162 17 285 69 421 180 227 185 466 346 513 346 11 0
22 -11 28 -30z m-712 -317 l40 -41 -77 -31 c-42 -16 -95 -34 -117 -40 -53 -13
-185 -25 -185 -17 0 4 36 48 80 99 45 51 97 117 118 148 l37 55 32 -65 c17
-36 50 -85 72 -108z"/>
<path d="M2050 6219 c-19 -11 -27 -18 -17 -15 11 4 16 2 11 -5 -3 -6 -15 -9
-25 -6 -10 3 -22 0 -26 -5 -4 -7 -1 -8 7 -3 9 5 11 4 6 -4 -4 -6 -11 -9 -16
-6 -15 9 -112 -44 -104 -57 4 -6 3 -8 -4 -4 -6 3 -73 -25 -149 -62 -216 -107
-206 -101 -192 -118 7 -9 8 -14 1 -14 -6 0 -15 6 -19 14 -6 12 -12 12 -30 3
-16 -9 -20 -16 -13 -27 8 -13 12 -12 25 5 8 11 15 16 14 10 -3 -22 2 -25 21
-15 11 6 20 18 20 28 0 13 2 14 9 3 5 -7 14 -10 20 -7 6 4 8 12 5 18 -5 7 -2
8 5 3 16 -9 92 25 84 38 -3 6 -1 7 5 3 10 -6 79 28 374 181 46 24 65 39 61 49
-7 19 -31 17 -73 -7z m-410 -249 c-8 -5 -19 -10 -25 -10 -5 0 -3 5 5 10 8 5
20 10 25 10 6 0 3 -5 -5 -10z"/>
<path d="M2137 6056 c-31 -18 -54 -36 -50 -41 5 -4 3 -5 -4 -1 -6 3 -67 -23
-135 -58 -391 -205 -394 -207 -383 -225 10 -17 33 -13 54 8 11 11 22 17 25 14
9 -10 36 19 29 31 -4 6 1 5 10 -3 15 -12 21 -9 18 11 0 4 7 4 16 1 11 -5 14
-3 8 6 -5 10 -2 11 13 7 11 -4 23 -2 27 4 3 6 23 17 43 26 20 8 45 22 55 31
10 9 24 18 31 19 8 1 88 42 179 90 107 58 163 93 160 101 -8 20 -34 15 -96
-21z"/>
<path d="M2195 5927 c-33 -19 -117 -64 -188 -101 -77 -41 -125 -72 -121 -78 4
-7 2 -8 -4 -4 -6 3 -49 -13 -97 -36 -72 -36 -83 -45 -70 -54 13 -10 10 -12
-17 -10 -24 1 -34 -4 -36 -17 -6 -30 31 -16 213 83 61 32 131 69 157 81 26 12
46 25 43 29 -2 3 1 7 8 7 20 0 106 50 99 57 -3 4 1 4 10 1 12 -5 26 3 44 22
15 15 24 22 20 15 -7 -11 -4 -11 13 0 25 16 28 38 4 38 -10 0 -45 -15 -78 -33z"/>
<path d="M1456 5907 c3 -10 9 -15 12 -12 3 3 0 11 -7 18 -10 9 -11 8 -5 -6z"/>
<path d="M2339 5791 c-315 -159 -428 -223 -423 -239 5 -14 4 -15 -5 -2 -9 13
-18 11 -63 -13 -76 -41 -91 -54 -85 -72 4 -8 12 -15 18 -15 9 0 8 4 0 14 -10
11 -8 16 8 21 12 3 21 11 21 16 0 6 4 8 8 5 5 -3 26 1 47 8 31 11 35 15 19 19
-10 3 -3 5 16 3 19 -1 46 4 60 12 l25 14 -30 -6 c-16 -3 -24 -3 -17 0 6 3 10
9 8 12 -2 4 10 7 27 6 40 0 58 6 51 17 -3 5 2 9 10 9 9 0 16 4 16 10 0 5 7 6
17 3 10 -4 14 -2 10 4 -5 7 0 9 13 6 14 -4 20 -1 18 7 -2 7 3 15 11 18 9 3 11
0 7 -9 -4 -8 1 -5 11 6 10 11 23 20 28 20 6 0 36 13 68 29 42 21 55 31 45 38
-9 6 -6 7 8 3 25 -7 124 41 124 61 0 24 -16 23 -71 -5z"/>
<path d="M2450 5664 c-25 -14 -139 -75 -255 -134 -305 -158 -348 -183 -351
-203 -1 -10 3 -16 9 -14 7 3 11 9 10 15 -2 6 4 9 12 5 9 -3 25 3 37 13 12 11
18 13 13 5 -4 -8 16 -1 46 16 64 36 214 115 394 208 139 72 161 87 151 104
-10 15 -15 14 -66 -15z"/>
<path d="M2568 5508 c-27 -11 -45 -25 -41 -31 3 -5 1 -7 -5 -4 -15 10 -43 -3
-35 -16 3 -6 1 -7 -5 -3 -6 4 -119 -47 -249 -113 -254 -129 -327 -170 -303
-171 12 0 12 -2 2 -9 -11 -7 -11 -9 0 -13 17 -6 111 46 101 56 -4 4 0 4 10 0
9 -3 17 -2 17 3 0 5 16 15 35 22 21 7 33 17 29 23 -5 7 -2 8 5 3 11 -6 75 19
91 35 3 3 24 14 48 24 23 11 42 22 42 26 0 4 6 7 13 7 20 0 106 50 99 57 -3 4
1 4 10 1 8 -3 23 1 31 10 9 9 18 14 20 13 9 -7 106 46 100 55 -3 6 -1 7 6 3
14 -9 41 11 41 30 0 18 -6 17 -62 -8z"/>
</g>
</svg>
